<svg width="40" height="40" viewBox="0 0 40 40" fill="none" xmlns="http://www.w3.org/2000/svg">
<rect width="40" height="40" rx="8" fill="#00AEEF"/>
<path d="M13 12H27V28H13V12Z" stroke="white" stroke-width="2" stroke-linecap="round" stroke-linejoin="round"/>
<path d="M13 18H27" stroke="white" stroke-width="2" stroke-linecap="round" stroke-linejoin="round"/>
<path d="M18 12V28" stroke="white" stroke-width="2" stroke-linecap="round" stroke-linejoin="round"/>
<path d="M17 8V12" stroke="white" stroke-width="2" stroke-linecap="round" stroke-linejoin="round"/>
<path d="M23 8V12" stroke="white" stroke-width="2" stroke-linecap="round" stroke-linejoin="round"/>
<path d="M20 24C21.1046 24 22 23.1046 22 22C22 20.8954 21.1046 20 20 20C18.8954 20 18 20.8954 18 22C18 23.1046 18.8954 24 20 24Z" fill="white"/>
<path d="M20 22.5C19.0572 22.5 18.25 21.6928 18.25 20.75C18.25 19.8072 19.0572 19 20 19C20.9428 19 21.75 19.8072 21.75 20.75C21.75 21.6928 20.9428 22.5 20 22.5Z" stroke="#00AEEF" stroke-width="1.5"/>
<path d="M20 21.5C19.8667 21.5 19.75 21.3833 19.75 21.25C19.75 21.1167 19.8667 21 20 21C20.1333 21 20.25 21.1167 20.25 21.25C20.25 21.3833 20.1333 21.5 20 21.5Z" fill="white"/>
</svg>